<?xml version="1.0" encoding="utf-8"?>
<!-- Generator: Adobe Illustrator 23.0.6, SVG Export Plug-In . SVG Version: 6.00 Build 0)  -->
<svg version="1.1" id="Layer_1" zoomAndPan="disable"
	 xmlns="http://www.w3.org/2000/svg" xmlns:xlink="http://www.w3.org/1999/xlink" x="0px" y="0px" viewBox="0 0 36 36"
	 style="enable-background:new 0 0 36 36;" xml:space="preserve">
<style type="text/css">
	.st0{fill:#3D3D3D;}
</style>
<g>
	<path class="st0" d="M32.4,17.8c4,4.2,3.9,10.4,0,14.4c-3.9,3.9-10.1,4-14.3,0c-2.3,2.2-5.1,3.2-8.3,2.9c-2.6-0.3-4.7-1.4-6.4-3.3
		C0,28-0.3,22,3.8,17.8c-2.2-2.3-3.2-5-2.9-8.2c0.2-2.4,1.2-4.5,3-6.2c4.1-4,10.4-3.8,14.3,0.1c2.3-2.2,5.1-3.2,8.3-2.9
		c2.4,0.3,4.5,1.3,6.1,3C36.4,7.5,36.4,13.8,32.4,17.8z M11.5,14.9c0-0.1,0-0.3,0-0.4c0-0.9,0-1.8,0-2.6c0-0.5,0.1-0.6,0.6-0.6
		c0.9,0,1.8,0,2.7,0c0.1,0,0.2,0,0.4,0c-0.1-2.7,0.7-5.1,2.4-7.1c-2.7-2.5-5.8-3.4-9.3-2.3c-3.5,1-5.7,3.5-6.5,7
		c-0.7,3.2,0.3,6.1,2.6,8.5C6.4,15.6,8.8,14.8,11.5,14.9z M11.5,20.8c-1.3,0-2.6-0.1-3.8-0.5c-1.2-0.4-2.3-1-3.3-1.8
		c-2.2,2.2-3.5,5.6-2.4,9.2c1.1,3.5,3.5,5.8,7.1,6.5c3.2,0.7,6.1-0.3,8.5-2.6c-0.8-1-1.5-2.1-1.9-3.3c-0.4-1.2-0.6-2.5-0.5-3.8
		c-0.1,0-0.3,0-0.4,0c-0.9,0-1.8,0-2.7,0c-0.4,0-0.6-0.1-0.6-0.6c0-0.5,0-1,0-1.5C11.5,21.8,11.5,21.3,11.5,20.8z M24.7,20.8
		c0,0.2,0,0.3,0,0.4c0,0.9,0,1.7,0,2.6c0,0.6-0.1,0.7-0.7,0.7c-0.8,0-1.5,0-2.3,0c-0.2,0-0.4,0-0.6,0c-0.3,3.7-0.4,4.2-2.4,7.1
		c2.5,2.3,5.4,3.3,8.7,2.5c3.8-0.9,6.2-3.4,7.1-7.2c0.7-3.2-0.3-6.1-2.6-8.5C29.8,20.1,27.4,20.9,24.7,20.8z M31.8,17.3
		c2.3-2.5,3.3-5.4,2.5-8.6c-0.9-3.8-3.4-6.3-7.2-7.1c-3.2-0.7-6.1,0.3-8.5,2.6c1.7,2.1,2.5,4.5,2.4,7.1c0.2,0,0.3,0,0.4,0
		c0.9,0,1.7,0,2.6,0c0.6,0,0.7,0.1,0.7,0.7c0,0.8,0,1.5,0,2.3c0,0.2,0,0.4,0,0.6C27.4,14.8,29.8,15.6,31.8,17.3z M12.3,23.6
		c3.9,0,7.7,0,11.5,0c0-3.9,0-7.7,0-11.5c-3.9,0-7.7,0-11.5,0C12.3,15.9,12.3,19.7,12.3,23.6z M20.2,11.2c0.1-2.4-0.6-4.5-2.1-6.5
		c-1.5,1.9-2.2,4-2.1,6.5C17.4,11.2,18.8,11.2,20.2,11.2z M11.5,19.9c0-1.4,0-2.8,0-4.2c-2.4-0.1-4.5,0.6-6.4,2.1
		C6.9,19.3,9.1,20,11.5,19.9z M24.7,19.9c2.3,0.2,4.9-0.7,6.4-2.1c-1.9-1.5-4-2.2-6.4-2C24.7,17.2,24.7,18.5,24.7,19.9z M16,24.4
		c-0.1,2.4,0.6,4.5,2.1,6.5c1.5-1.9,2.2-4,2.1-6.5C18.8,24.4,17.4,24.4,16,24.4z"/>
	<path class="st0" d="M16.8,17.4c-1-1.1-1-2.4-0.1-3.2c0.8-0.8,2.1-0.8,2.9,0c0.9,0.9,0.9,2.1-0.1,3.2c0.4,0.2,0.8,0.4,1.2,0.7
		c1.1,0.8,1.6,2,1.6,3.4c0,0.4-0.2,0.5-0.5,0.5c-2.4,0-4.8,0-7.2,0c-0.4,0-0.5-0.2-0.5-0.5c0-1.7,0.8-3,2.2-3.8
		c0.1,0,0.2-0.1,0.3-0.1C16.6,17.5,16.7,17.4,16.8,17.4z M21.4,21.1c-0.1-1.2-0.6-2.1-1.6-2.7c-1.2-0.7-2.3-0.6-3.5,0.1
		c-0.9,0.6-1.4,1.4-1.5,2.6C17,21.1,19.2,21.1,21.4,21.1z M18.1,17c0.7,0,1.3-0.6,1.3-1.3c0-0.7-0.6-1.3-1.3-1.3
		c-0.7,0-1.3,0.6-1.3,1.3C16.8,16.4,17.4,17,18.1,17z"/>
</g>
</svg>
