<?xml version="1.0" encoding="utf-8"?>
<!-- Generator: Adobe Illustrator 23.0.6, SVG Export Plug-In . SVG Version: 6.00 Build 0)  -->
<svg version="1.1" id="Layer_1" zoomAndPan="disable"
	 xmlns="http://www.w3.org/2000/svg" xmlns:xlink="http://www.w3.org/1999/xlink" x="0px" y="0px" viewBox="0 0 36 36"
	 style="enable-background:new 0 0 36 36;" xml:space="preserve">
<style type="text/css">
	.st0{fill:#3D3D3D;}
</style>
<g>
	<path class="st0" d="M17.9,30.1c-0.6,0-1.3,0-1.9,0c-0.9-0.1-1.7-0.8-1.7-1.7c0-0.6,0-1.2-0.1-1.8c-0.1-1.8-0.8-3.3-2-4.7
		c-0.7-0.7-1.3-1.4-1.8-2.3c-0.9-1.6-1.2-3.2-1.1-5c0.2-2.5,1.3-4.5,3.3-6c2.1-1.7,4.5-2.3,7.2-1.6c3.5,0.8,5.7,3,6.5,6.5
		c0.6,2.5,0.1,4.8-1.4,6.9c-0.5,0.7-1.1,1.2-1.6,1.9c-1.2,1.4-1.7,3.1-1.7,5c0,0.5,0,1-0.1,1.5c-0.2,0.8-0.8,1.3-1.7,1.3
		C19.2,30.2,18.6,30.1,17.9,30.1L17.9,30.1z M17.9,29c0.5,0,1.1,0,1.6,0c0.6,0,0.9-0.3,0.9-0.9c0-0.7,0-1.3,0.1-2
		c0.2-2,1.1-3.8,2.5-5.3c2.1-2.1,2.8-4.5,2.1-7.4c-0.8-3.3-4.2-5.8-7.7-5.5c-2.4,0.2-4.3,1.3-5.6,3.2c-1.6,2.3-1.7,4.7-0.7,7.3
		c0.4,0.9,1,1.7,1.7,2.4c1.1,1.1,1.9,2.4,2.3,4c0.3,1.1,0.3,2.2,0.3,3.2c0,0.6,0.3,0.9,0.9,0.9C16.9,29,17.4,29,17.9,29z"/>
	<path class="st0" d="M18,32.9c0.9,0,1.9,0,2.8,0c0.6,0,0.9,0.5,0.6,0.9c-0.1,0.2-0.4,0.3-0.6,0.3c-1.9,0-3.8,0-5.6,0
		c-0.4,0-0.7-0.3-0.7-0.6c0-0.4,0.3-0.6,0.7-0.6C16.1,32.9,17,32.9,18,32.9z"/>
	<path class="st0" d="M18,31c0.9,0,1.9,0,2.8,0c0.2,0,0.5,0.2,0.6,0.3c0.1,0.1,0.1,0.5,0,0.6c-0.1,0.2-0.4,0.2-0.6,0.3
		c-1,0-2,0-2.9,0s-1.8,0-2.6,0c-0.6,0-0.9-0.5-0.6-0.9c0.1-0.2,0.4-0.3,0.6-0.3C16.1,31,17,31,18,31z"/>
	<path class="st0" d="M5.5,15.4c-0.5,0-1.1,0-1.6,0c-0.4,0-0.7-0.2-0.7-0.6c0-0.4,0.3-0.6,0.7-0.6c1.1,0,2.2,0,3.3,0
		c0.4,0,0.7,0.3,0.7,0.6c0,0.4-0.3,0.6-0.7,0.6C6.6,15.4,6,15.4,5.5,15.4z"/>
	<path class="st0" d="M30.4,15.4c-0.5,0-1.1,0-1.6,0c-0.4,0-0.7-0.2-0.7-0.6c0-0.4,0.3-0.6,0.7-0.6c1.1,0,2.2,0,3.2,0
		c0.4,0,0.7,0.2,0.7,0.6c0,0.4-0.3,0.6-0.7,0.6C31.5,15.4,30.9,15.4,30.4,15.4z"/>
	<path class="st0" d="M18.5,2.4c0,0.5,0,1.1,0,1.6S18,4.9,17.6,4.6c-0.2-0.1-0.3-0.4-0.3-0.6c0-1.1,0-2.2,0-3.3
		c0-0.4,0.3-0.7,0.6-0.7c0.3,0,0.6,0.3,0.6,0.7C18.6,1.2,18.5,1.8,18.5,2.4z"/>
	<path class="st0" d="M25.5,7.9c-0.2-0.2-0.4-0.3-0.5-0.4c-0.1-0.2,0-0.5,0.1-0.6c0.2-0.3,0.5-0.6,0.8-0.8c0.5-0.5,1-1,1.6-1.6
		c0.3-0.3,0.7-0.3,0.9-0.1c0.3,0.2,0.2,0.6-0.1,0.9C27.6,6,26.8,6.8,26,7.5C25.9,7.7,25.7,7.7,25.5,7.9z"/>
	<path class="st0" d="M11,7.2c-0.1,0.2-0.2,0.4-0.4,0.5s-0.5,0-0.6-0.1C9.8,7.5,9.6,7.3,9.4,7.1C8.8,6.4,8.1,5.8,7.5,5.2
		C7.3,5,7.3,4.7,7.4,4.4C7.5,4.2,7.8,4.1,8,4.1c0.1,0,0.2,0.1,0.3,0.2c0.8,0.8,1.6,1.6,2.4,2.4C10.9,6.9,10.9,7,11,7.2z"/>
	<path class="st0" d="M7.9,25.5c-0.2-0.2-0.4-0.3-0.5-0.4c-0.1-0.2-0.1-0.5,0.1-0.7c0.4-0.4,0.7-0.7,1.1-1.1C9,22.8,9.5,22.4,9.9,22
		c0.3-0.3,0.7-0.3,0.9-0.1c0.2,0.2,0.2,0.6-0.1,0.9c-0.8,0.8-1.5,1.5-2.3,2.3C8.3,25.3,8.1,25.3,7.9,25.5z"/>
	<path class="st0" d="M28.7,24.8c-0.2,0.2-0.3,0.4-0.4,0.5c-0.2,0.1-0.5,0.1-0.7-0.1c-0.4-0.4-0.8-0.8-1.2-1.2
		c-0.4-0.4-0.8-0.8-1.2-1.2c-0.3-0.3-0.3-0.7-0.1-0.9c0.3-0.3,0.6-0.2,0.9,0.1c0.8,0.8,1.5,1.5,2.3,2.3
		C28.4,24.4,28.5,24.6,28.7,24.8z"/>
	<path class="st0" d="M17.9,36c-0.4,0-0.9,0-1.3,0s-0.7-0.2-0.7-0.6c0-0.4,0.3-0.6,0.7-0.6c0.9,0,1.8,0,2.7,0c0.4,0,0.7,0.2,0.7,0.6
		c0,0.3-0.3,0.6-0.7,0.6C18.8,36,18.4,36,17.9,36z"/>
	<path class="st0" d="M18.3,9.2c1.3,0.1,2.6,0.5,3.6,1.4c0.3,0.3,0.4,0.6,0.2,0.9c-0.2,0.3-0.6,0.3-0.9,0c-0.8-0.6-1.6-1-2.6-1.1
		c-0.2,0-0.4,0-0.5,0c-0.5,0-0.7-0.3-0.7-0.6c0-0.4,0.3-0.6,0.8-0.6C18.2,9.2,18.2,9.2,18.3,9.2z"/>
	<path class="st0" d="M24.2,15.1c0,0.1,0,0.2,0,0.4c0,0.3-0.3,0.5-0.6,0.5c-0.3,0-0.5-0.2-0.6-0.5c-0.1-0.7-0.3-1.4-0.4-2.1
		c-0.1-0.3,0.1-0.6,0.4-0.6c0.3-0.1,0.6,0,0.7,0.4C23.9,13.8,24.1,14.4,24.2,15.1L24.2,15.1z"/>
</g>
</svg>
