<?xml version="1.0" encoding="utf-8"?>
<!-- Generator: Adobe Illustrator 23.0.6, SVG Export Plug-In . SVG Version: 6.00 Build 0)  -->
<svg version="1.1" id="Layer_1" zoomAndPan="disable"
	 xmlns="http://www.w3.org/2000/svg" xmlns:xlink="http://www.w3.org/1999/xlink" x="0px" y="0px" viewBox="0 0 36 36"
	 style="enable-background:new 0 0 36 36;" xml:space="preserve">
<style type="text/css">
	.st0{fill:#3D3D3D;}
</style>
<path class="st0" d="M33.1,9.1c0,4.3-1,8.4-2.8,12.3c-1.4,3.2-3.3,6.2-5.7,8.8c-1.6,1.7-3.4,3.1-5.5,4.1c-0.3,0.1-0.7,0.3-1,0.4
	c-0.1,0-0.2,0-0.3,0c-2-0.6-3.8-1.8-5.3-3.2c-2.5-2.3-4.5-5.1-6-8.1c-1.2-2.4-2.2-4.9-2.8-7.5c-0.7-2.7-1-5.4-0.8-8.2
	c0.1-2,0.5-3.9,1.3-5.8c0.1-0.3,0.3-0.4,0.7-0.3c1,0.2,2,0.4,3.1,0.5c1.8,0.2,3.7,0.4,5.5,0.5c2.8,0.2,5.5,0.2,8.3,0.1
	c3.2-0.1,6.3-0.5,9.4-1c0.5-0.1,0.6,0,0.8,0.4C32.8,4.2,33.1,6.6,33.1,9.1z M4.8,2.3C4.1,4,3.7,5.9,3.6,7.7c-0.2,2.5,0.1,5,0.7,7.5
	c0.8,3.5,2.2,6.9,4.1,10c1.3,2.1,2.7,4,4.5,5.6c1.4,1.3,3,2.4,4.9,3c0.1,0,0.3,0.1,0.4,0c0.8-0.3,1.5-0.6,2.2-1
	c1.7-1,3.2-2.4,4.5-3.9c2.2-2.6,3.9-5.6,5.2-8.8c1.1-2.7,1.9-5.6,2.1-8.5c0.2-1.9,0.1-3.9-0.2-5.8c-0.2-1.2-0.5-2.3-0.9-3.4
	C22.3,3.7,13.6,3.7,4.8,2.3z"/>
<path class="st0" d="M17.9,22.5c1.8,0,3.6,0,5.4,0c0.1,0,0.2,0,0.3,0c0.4,0,0.5,0.4,0.3,0.7c-0.1,0.2-0.3,0.3-0.4,0.4
	c-1.2,1-2.4,2-3.8,2.7c-0.9,0.5-1.9,0.8-2.9,0.4c-0.6-0.3-1.3-0.6-1.8-1c-1-0.7-2-1.5-2.9-2.3c-0.2-0.2-0.3-0.4-0.2-0.6
	c0.1-0.3,0.3-0.3,0.5-0.3C14.2,22.5,16.1,22.5,17.9,22.5L17.9,22.5z M22.5,23.3c-3.1,0-6.2,0-9.3,0c0.2,0.2,0.4,0.3,0.6,0.5
	c0.9,0.7,1.8,1.5,2.9,2c0.7,0.4,1.5,0.4,2.2,0.1C20.2,25.3,21.4,24.3,22.5,23.3z"/>
<path class="st0" d="M11.2,13.6c-0.8-0.1-1.5-0.2-2.1-0.6c-0.7-0.4-1.4-0.8-2.1-1.2c-0.5-0.3-0.5-0.7,0-0.9c0.8-0.4,1.5-0.9,2.3-1.3
	c1.5-0.6,3-0.7,4.4,0.1c0.7,0.4,1.3,0.7,2,1.1c0.4,0.2,0.4,0.7,0,0.9c-1,0.5-1.9,1.1-2.9,1.5C12.3,13.5,11.8,13.5,11.2,13.6z
	 M7.7,11.4c0.8,0.4,1.6,0.8,2.4,1.2c0.2,0.1,0.4,0.1,0.6,0.1c1.6,0.2,2.9-0.6,4.2-1.4c-0.6-0.3-1.1-0.6-1.6-0.9
	c-0.7-0.4-1.4-0.5-2.1-0.4C9.8,10,8.9,10.8,7.7,11.4z"/>
<path class="st0" d="M24.4,13.6c-0.8-0.1-1.5-0.2-2.2-0.6c-0.7-0.4-1.4-0.8-2.1-1.2c-0.3-0.2-0.4-0.6,0-0.8c1-0.6,1.9-1.3,3.1-1.6
	C24.5,9,25.7,9,26.9,9.8c0.6,0.4,1.3,0.7,2,1.1c0.4,0.2,0.4,0.7,0,0.9c-1,0.5-1.9,1.1-2.9,1.5C25.5,13.5,25,13.5,24.4,13.6z
	 M21,11.3v0.1c0.7,0.4,1.3,0.8,2,1.1c1,0.5,2.1,0.4,3.1-0.1c0.7-0.3,1.3-0.7,2-1c-0.5-0.3-1-0.6-1.5-0.9c-1-0.7-2.1-0.7-3.3-0.3
	C22.5,10.5,21.8,10.9,21,11.3z"/>
<path class="st0" d="M17.9,19.8c-0.6,0-1.1,0-1.7,0c-0.4,0-0.5-0.1-0.5-0.5c0-0.8,0.2-1.5,0.6-2.2c0.4-0.7,0.7-1.3,1.1-2
	c0.3-0.5,0.7-0.5,1,0c0.5,0.9,1,1.8,1.4,2.8c0.2,0.4,0.2,0.9,0.3,1.4c0,0.4-0.1,0.5-0.5,0.5C19,19.8,18.5,19.8,17.9,19.8L17.9,19.8z
	 M17.9,15.9c-0.5,1-1.3,1.9-1.4,3.1c0.9,0,1.8,0,2.7,0C19.2,17.8,18.5,16.9,17.9,15.9z"/>
</svg>
